<?xml version="1.0" encoding="UTF-8"?><!DOCTYPE svg PUBLIC "-//W3C//DTD SVG 1.1//EN" "http://www.w3.org/Graphics/SVG/1.1/DTD/svg11.dtd"><svg xmlns="http://www.w3.org/2000/svg" xmlns:xlink="http://www.w3.org/1999/xlink"><symbol id="plyr-adblock" viewBox="0 0 24 24"><path d="M12 2C6.48 2 2 6.48 2 12s4.48 10 10 10 10-4.48 10-10S17.52 2 12 2zM4 12c0-4.42 3.58-8 8-8 1.85 0 3.55.63 4.9 1.69L5.69 16.9A7.902 7.902 0 014 12zm8 8c-1.85 0-3.55-.63-4.9-1.69L18.31 7.1A7.902 7.902 0 0120 12c0 4.42-3.58 8-8 8z"/></symbol><symbol id="plyr-airplay" viewBox="0 0 18 18"><path d="M16 1H2a1 1 0 00-1 1v10a1 1 0 001 1h3v-2H3V3h12v8h-2v2h3a1 1 0 001-1V2a1 1 0 00-1-1z"/><path d="M4 17h10l-5-6z"/></symbol><symbol id="plyr-captions-off" viewBox="0 0 24 24"><path d="M20 4H4c-1.1 0-2 .9-2 2v12c0 1.1.9 2 2 2h16c1.1 0 2-.9 2-2V6c0-1.1-.9-2-2-2zM4 12h4v2H4v-2zm10 6H4v-2h10v2zm6 0h-4v-2h4v2zm0-4H10v-2h10v2z"/></symbol><symbol id="plyr-captions-on" viewBox="0 0 24 24"><path d="M20 4H4c-1.1 0-2 .9-2 2v12c0 1.1.9 2 2 2h16c1.1 0 2-.9 2-2V6c0-1.1-.9-2-2-2zM4 12h4v2H4v-2zm10 6H4v-2h10v2zm6 0h-4v-2h4v2zm0-4H10v-2h10v2z"/></symbol><symbol id="plyr-download" viewBox="0 0 18 18"><path d="M9 13c.3 0 .5-.1.7-.3L15.4 7 14 5.6l-4 4V1H8v8.6l-4-4L2.6 7l5.7 5.7c.2.2.4.3.7.3zm-7 2h14v2H2z"/></symbol><symbol id="plyr-enter-fullscreen" viewBox="0 0 18 18"><path d="M4.5 11H3v4h4v-1.5H4.5V11zM3 7h1.5V4.5H7V3H3v4zm10.5 6.5H11V15h4v-4h-1.5v2.5zM11 3v1.5h2.5V7H15V3h-4z"/></symbol><symbol id="plyr-exit-fullscreen" viewBox="0 0 18 18"><path d="M3 12.5h2.5V15H7v-4H3v1.5zm2.5-7H3V7h4V3H5.5v2.5zM11 15h1.5v-2.5H15V11h-4v4zm1.5-9.5V3H11v4h4V5.5h-2.5z"/></symbol><symbol id="plyr-fast-forward" viewBox="0 0 18 18"><path d="M7.875 7.171L0 1v16l7.875-6.171V17L18 9 7.875 1z"/></symbol><symbol id="plyr-googlecast" viewBox="0 0 24 24"><path d="M21 3H3c-1.1 0-2 .9-2 2v3h2V5h18v14h-7v2h7c1.1 0 2-.9 2-2V5c0-1.1-.9-2-2-2zM1 18v3h3c0-1.66-1.34-3-3-3zm0-4v2c2.76 0 5 2.24 5 5h2c0-3.87-3.13-7-7-7zm0-4v2a9 9 0 019 9h2c0-6.08-4.93-11-11-11z"/></symbol><symbol id="plyr-logo-vimeo" viewBox="0 0 18 18"><path d="M17 5.3c-.1 1.6-1.2 3.7-3.3 6.4-2.2 2.8-4 4.2-5.5 4.2-.9 0-1.7-.9-2.4-2.6C5 10.9 4.4 6 3 6c-.1 0-.5.3-1.2.8l-.8-1c.8-.7 3.5-3.4 4.7-3.5 1.2-.1 2 .7 2.3 2.5.3 2 .8 6.1 1.8 6.1.9 0 2.5-3.4 2.6-4 .1-.9-.3-1.9-2.3-1.1.8-2.6 2.3-3.8 4.5-3.8 1.7.1 2.5 1.2 2.4 3.3z"/></symbol><symbol id="plyr-logo-youtube" viewBox="0 0 18 18"><path d="M16.8 5.8c-.2-1.3-.8-2.2-2.2-2.4C12.4 3 9 3 9 3s-3.4 0-5.6.4C2 3.6 1.3 4.5 1.2 5.8 1 7.1 1 9 1 9s0 1.9.2 3.2c.2 1.3.8 2.2 2.2 2.4C5.6 15 9 15 9 15s3.4 0 5.6-.4c1.4-.3 2-1.1 2.2-2.4.2-1.3.2-3.2.2-3.2s0-1.9-.2-3.2zM7 12V6l5 3-5 3z"/></symbol><symbol id="plyr-muted" viewBox="0 0 24 24"><path d="M16.5 12A4.5 4.5 0 0014 7.97v2.21l2.45 2.45c.03-.2.05-.41.05-.63zm2.5 0c0 .94-.2 1.82-.54 2.64l1.51 1.51A8.796 8.796 0 0021 12c0-4.28-2.99-7.86-7-8.77v2.06c2.89.86 5 3.54 5 6.71zM4.27 3L3 4.27 7.73 9H3v6h4l5 5v-6.73l4.25 4.25c-.67.52-1.42.93-2.25 1.18v2.06a8.99 8.99 0 003.69-1.81L19.73 21 21 19.73l-9-9L4.27 3zM12 4L9.91 6.09 12 8.18V4z"/></symbol><symbol id="plyr-pause" viewBox="0 0 18 18"><path d="M6 1H3c-.6 0-1 .4-1 1v14c0 .6.4 1 1 1h3c.6 0 1-.4 1-1V2c0-.6-.4-1-1-1zm6 0c-.6 0-1 .4-1 1v14c0 .6.4 1 1 1h3c.6 0 1-.4 1-1V2c0-.6-.4-1-1-1h-3z"/></symbol><symbol id="plyr-pip" viewBox="0 0 24 24"><path d="M19 11h-8v6h8v-6zm4 8V4.98C23 3.88 22.1 3 21 3H3c-1.1 0-2 .88-2 1.98V19c0 1.1.9 2 2 2h18c1.1 0 2-.9 2-2zm-2 .02H3V4.97h18v14.05z"/></symbol><symbol id="plyr-play" viewBox="0 0 18 18"><path d="M15.562 8.1L3.87.225c-.818-.562-1.87 0-1.87.9v15.75c0 .9 1.052 1.462 1.87.9L15.563 9.9c.584-.45.584-1.35 0-1.8z"/></symbol><symbol id="plyr-restart" viewBox="0 0 18 18"><path d="M9.7 1.2l.7 6.4 2.1-2.1c1.9 1.9 1.9 5.1 0 7-.9 1-2.2 1.5-3.5 1.5-1.3 0-2.6-.5-3.5-1.5-1.9-1.9-1.9-5.1 0-7 .6-.6 1.4-1.1 2.3-1.3l-.6-1.9C6 2.6 4.9 3.2 4 4.1 1.3 6.8 1.3 11.2 4 14c1.3 1.3 3.1 2 4.9 2 1.9 0 3.6-.7 4.9-2 2.7-2.7 2.7-7.1 0-9.9L16 1.9l-6.3-.7z"/></symbol><symbol id="plyr-rewind" viewBox="0 0 18 18"><path d="M10.125 1L0 9l10.125 8v-6.171L18 17V1l-7.875 6.171z"/></symbol><symbol id="plyr-settings" viewBox="0 0 18 18"><path d="M16.135 7.784a2 2 0 01-1.23-2.969c.322-.536.225-.998-.094-1.316l-.31-.31c-.318-.318-.78-.415-1.316-.094a2 2 0 01-2.969-1.23C10.065 1.258 9.669 1 9.219 1h-.438c-.45 0-.845.258-.997.865a2 2 0 01-2.969 1.23c-.536-.322-.999-.225-1.317.093l-.31.31c-.318.318-.415.781-.093 1.317a2 2 0 01-1.23 2.969C1.26 7.935 1 8.33 1 8.781v.438c0 .45.258.845.865.997a2 2 0 011.23 2.969c-.322.536-.225.998.094 1.316l.31.31c.319.319.782.415 1.316.094a2 2 0 012.969 1.23c.151.607.547.865.997.865h.438c.45 0 .845-.258.997-.865a2 2 0 012.969-1.23c.535.321.997.225 1.316-.094l.31-.31c.318-.318.415-.781.094-1.316a2 2 0 011.23-2.969c.607-.151.865-.547.865-.997v-.438c0-.451-.26-.846-.865-.997zM9 12a3 3 0 110-6 3 3 0 010 6z"/></symbol><symbol id="plyr-tubeworld" viewBox="0 0 640 512"><path fill="currentColor" d="M224 192c-35.3 0-64 28.7-64 64s28.7 64 64 64 64-28.7 64-64-28.7-64-64-64zm400 224H380.6c41.5-40.7 67.4-97.3 67.4-160 0-123.7-100.3-224-224-224S0 132.3 0 256s100.3 224 224 224h400c8.8 0 16-7.2 16-16v-32c0-8.8-7.2-16-16-16zm-400-64c-53 0-96-43-96-96s43-96 96-96 96 43 96 96-43 96-96 96z"/></symbol><symbol id="plyr-volume-down" viewBox="0 0 18 18"><path d="M4 7v4h3l4 4V3L7 7H4zm9-1v6c1.17-.49 2-1.65 2-3s-.83-2.51-2-3z"/></symbol><symbol id="plyr-volume" viewBox="0 0 18 18"><path d="M12.79 9A3.4 3.4 0 0011 6v6a3.42 3.42 0 001.79-3zM2 7v4h3l4 4V3L5 7H2zm9-5v1.5c2.32.74 4 2.93 4 5.5s-1.68 4.76-4 5.5V16c3.15-.78 5.5-3.6 5.5-7S14.15 2.78 11 2z"/></symbol></svg>
